<?xml version="1.0" standalone="no"?>
<!DOCTYPE svg PUBLIC "-//W3C//DTD SVG 20010904//EN"
 "http://www.w3.org/TR/2001/REC-SVG-20010904/DTD/svg10.dtd">
<svg version="1.0" xmlns="http://www.w3.org/2000/svg"
 width="1080.000000pt" height="1080.000000pt" viewBox="0 0 1080.000000 1080.000000"
 preserveAspectRatio="xMidYMid meet">

<g transform="translate(0.000000,1080.000000) scale(0.100000,-0.100000)"
fill="#000000" stroke="none">
<path d="M5377 7466 c-84 -23 -120 -74 -175 -246 -48 -151 -63 -235 -69 -390
-6 -154 13 -324 44 -402 23 -57 94 -114 157 -129 45 -10 61 -9 103 5 84 28
153 118 153 201 0 19 -7 77 -16 127 -29 165 -7 344 66 543 30 81 24 150 -16
208 -51 73 -155 108 -247 83z"/>
<path d="M4210 7211 c-49 -16 -88 -41 -120 -77 -72 -82 -77 -149 -24 -292 106
-284 288 -571 506 -795 109 -112 160 -141 253 -142 153 -1 258 151 214 309 -8
29 -39 68 -113 145 -56 58 -120 129 -142 156 -101 125 -204 302 -269 466 -25
62 -57 128 -71 146 -50 66 -164 107 -234 84z m123 -55 c57 -24 93 -75 142
-196 100 -251 244 -462 461 -675 83 -83 91 -185 22 -270 -53 -63 -136 -83
-216 -50 -75 32 -282 258 -405 445 -139 211 -277 527 -263 601 21 113 157 189
259 145z"/>
<path d="M5686 6070 c-336 -53 -611 -241 -823 -562 -139 -211 -225 -445 -268
-733 -31 -206 -29 -647 5 -949 21 -184 146 -280 305 -236 60 17 129 79 151
136 16 42 16 59 3 237 -19 259 -17 610 5 752 35 232 115 442 224 585 148 196
347 309 543 310 75 0 199 -33 263 -70 62 -35 145 -120 174 -176 66 -132 74
-204 117 -1144 17 -366 23 -418 60 -473 71 -104 247 -129 354 -49 50 37 71 92
71 188 0 194 -52 1167 -71 1309 -59 452 -309 744 -728 852 -109 27 -288 38
-385 23z m325 -56 c314 -59 562 -258 669 -536 78 -202 88 -292 131 -1206 l21
-443 -24 -47 c-51 -101 -201 -122 -295 -39 -20 17 -42 46 -49 64 -10 22 -22
185 -39 530 -43 862 -47 894 -112 1031 -63 134 -183 228 -343 268 -97 24 -263
15 -353 -19 -279 -108 -500 -406 -577 -780 -43 -210 -52 -518 -25 -870 15
-198 13 -213 -27 -269 -24 -34 -109 -78 -151 -78 -64 0 -134 47 -168 113 -40
77 -65 718 -38 965 32 302 124 567 276 797 76 115 243 288 342 355 125 84 279
148 408 170 84 14 266 11 354 -6z"/>
<path d="M3835 5908 c-115 -13 -243 -45 -290 -73 -74 -43 -122 -143 -106 -218
19 -81 82 -151 159 -173 50 -15 57 -14 165 11 102 25 125 27 257 23 123 -4
159 -9 235 -33 166 -53 240 -43 315 42 63 71 68 177 14 256 -84 121 -442 200
-749 165z"/>
<path d="M6020 4792 c-40 -19 -80 -88 -80 -137 1 -47 35 -112 72 -135 45 -27
131 -27 176 0 69 42 89 150 43 226 -36 60 -139 82 -211 46z"/>
</g>
</svg>
